#!OML:ASF F:\VICON\USERDATA\INSTALL\rory3\rory3.ASF
:FULLY-SPECIFIED
:DEGREES
52
root 0.3659445082621312 17.600983866593776 27.926252564203743 1.2472391125371671 2.2178166098869267 2.9571343910647276
lfemur 10.407515579962165 -2.0493398332164117 -30.063015979701312
ltibia 20.951199611881055
lfoot -18.934491041681433 -0.1235502661677832
ltoes -3.0323806013219974
rfemur -42.317033314125545 0.03758942309351676 17.992493537269375
rtibia 45.71487657532498
rfoot -2.4251593330162384 -17.664251169553555
rtoes -3.5357051579970173
lowerback 12.354723290391247 -0.7989504281381772 -4.796860772725845
upperback -0.00902648978104914 -1.6244124354536873 0.6399872954651042
thorax -7.066408975796279 -0.6148752780945368 4.115908709171626
lowerneck -18.544287099795607 -2.729281951141467 -2.814845015924213
upperneck 16.324565486397017 -3.605249513746371 2.8699518892420555
head 8.283389678147834 -1.5474770422670723 0.9394737225446629
lclavicle -2.381331294878613e-15 6.008699434754794e-16
lhumerus -24.661080964569496 -14.265335418592372 89.79262894853822
lradius 70.07117720077841
lwrist 21.42934926445028
lhand -26.118990682299785 13.40545296488183
lfingers 7.125019999999999
lthumb 0.4307872685396751 43.379305655140215
rclavicle -2.381331294878613e-15 6.008699434754794e-16
rhumerus -44.77642855718461 -6.645465313848039 -88.14205633721
rradius 67.0681243187571
rwrist -2.717311053983959
rhand -16.621486977196973 31.47847708478735
rfingers 7.125019999999999
rthumb 9.600327333795962 1.7027267653652196
53
root 0.29522105434904 17.430814237055248 28.978874866161696 2.1356323027666315 3.25396907466327 3.245114177432772
lfemur 15.74948115132569 -2.1931494422747675 -30.01611772915062
ltibia 16.82037452650732
lfoot -18.98920483547772 -1.3384447592798945
ltoes -7.112422377212167
rfemur -41.312705324820385 2.9550898141095576 16.846261937026764
rtibia 29.532933457922475
rfoot -2.7302470337878164 -19.462522547717406
rtoes -6.772378087594637
lowerback 11.706533617469825 -1.1806795120288993 -5.454171326844516
upperback -0.17196908948401549 -2.200100479428085 0.7622671634455684
thorax -6.850248556148614 -0.8720937153439503 4.725139413852329
lowerneck -18.687685689994534 -2.73941274185497 -2.869008332611895
upperneck 16.1710448957377 -3.623903713346322 2.909312978872611
head 8.2515677353657 -1.5450708584251063 0.955798239406915
lclavicle -2.4747193487524948e-15 5.3537935912662325e-16
lhumerus -21.08621256962526 -15.090779156977021 89.30874806588884
lradius 72.34757787916814
lwrist 22.130544918446503
lhand -26.47217422879531 12.997255371694257
lfingers 7.125019999999999
lthumb 0.08969675878021233 42.968429894010065
rclavicle -2.4747193487524948e-15 5.3537935912662325e-16
rhumerus -46.122280029533 -7.777670371146764 -87.2189929620506
rradius 65.9960822076008
rwrist -1.9152167878619382
rhand -16.653213739743745 31.65440877526983
rfingers 7.125019999999999
rthumb 9.569714744960185 1.87782583368576
54
root 0.20794327695478948 17.255454036213234 30.477866294430783 2.552522872649959 3.9499325309651967 3.1444160921732265
lfemur 20.25869094240587 -3.047489570822573 -29.368488145345395
ltibia 17.170786098415505
lfoot -17.586021079202062 -2.8506093669990706
ltoes -12.564507778364565
rfemur -39.9961315439933 4.261297214680213 17.263799372465506
rtibia 23.945188103757825
rfoot -1.7522761669249447 -17.119953244360232
rtoes -8.749596388394158
lowerback 11.426538056987287 -1.3856744210312573 -5.420753677211121
upperback -0.22054451954224685 -2.4495740055404966 1.0704624984953206
thorax -6.7108119974455 -0.9909300662087739 5.147450594904249
lowerneck -18.842625089335442 -2.675815168060522 -2.867116009083997
upperneck 16.20240489230069 -3.51993598039044 2.833655803302504
head 8.272993867499233 -1.4985863959573236 0.9394147109635798
lclavicle -1.9334161030517767e-15 9.148898405672367e-16
lhumerus -18.85216455542295 -14.794460997135147 89.10752525942551
lradius 74.04466586908748
lwrist 22.62253499125622
lhand -27.06531029158304 12.0770822309764
lfingers 7.125019999999999
lthumb -0.483104097987795 42.043904152040334
rclavicle -1.9334161030517767e-15 9.148898405672367e-16
rhumerus -47.40745525173081 -9.420330657747858 -85.70820554217575
rradius 64.71823725699443
rwrist -0.48591121731732567
rhand -16.922553362718364 31.65018253676014
rfingers 7.125019999999999
rthumb 9.309812580943518 1.8647969402063287
55
root 0.11932072619634902 17.15004760242333 31.73853093052437 2.401697599826084 4.083571929007975 2.450209133803669
lfemur 22.59574893359872 -4.333924902628996 -28.297337117390942
ltibia 21.56794850286371
lfoot -13.546041034909498 -5.147317339736527
ltoes -18.597144839178682
rfemur -39.46551888636429 4.019524880818274 18.939377924561512
rtibia 26.896649154950172
rfoot 0.6233997077151656 -12.252439518078143
rtoes -7.647343899318365
lowerback 11.376198882099136 -1.5055643676994421 -4.822408060524439
upperback -0.20803152410670803 -2.516335265894525 1.5472243527657255
thorax -6.671780673432422 -1.0336661748896885 5.269528242021784
lowerneck -18.947851928176192 -2.5007298455101714 -2.8231341613069296
upperneck 16.421939331407017 -3.2282652863679844 2.5445632115358707
head 8.33165072813104 -1.3895848941038014 0.8733598449683735
lclavicle -1.7238962951159927e-15 1.0617938177942376e-15
lhumerus -18.595852436565803 -13.858192145049532 89.27879761940997
lradius 75.07101454435217
lwrist 22.849072983501138
lhand -27.77564507613947 11.1286115592505
lfingers 7.125019999999999
lthumb -1.1690900621515161 41.08889788369289
rclavicle -1.7238962951159927e-15 1.0617938177942376e-15
rhumerus -49.00743267761963 -11.649845557073583 -83.8495994963638
rradius 63.14641239481555
rwrist 1.3334147472525482
rhand -17.238859794227643 31.555874741239936
rfingers 7.125019999999999
rthumb 9.004574156112222 1.7612651326031912
56
root 0.03326050985528773 17.188646722750143 32.46696781131031 1.8160151252999857 3.845706072795605 1.093716009069107
lfemur 21.742381248893828 -5.404851796957104 -26.382380646043078
ltibia 30.080439339679174
lfoot -4.936895249474563 -8.685691897899156
ltoes -22.21245426480194
rfemur -38.424415447247725 3.309555144187277 21.61852225663152
rtibia 33.58894891500457
rfoot 3.3729126918644488 -7.084021392421496
rtoes -2.4020120102058975
lowerback 11.434939143754727 -1.5698774618901545 -3.578217461266182
upperback -0.23129310771529232 -2.4321393299648575 2.172882275344299
thorax -6.731562547401483 -1.0155635528215332 5.045615577477185
lowerneck -18.842487674297992 -2.23685490294308 -2.733052145171023
upperneck 16.808246032610672 -2.7856874227210335 2.080084028675642
head 8.404438849143117 -1.2386117201833784 0.7667776666469808
lclavicle -1.8040000977054846e-15 1.0056423852143503e-15
lhumerus -20.58043606554792 -12.44755687083023 89.76049177993505
lradius 75.58547272804078
lwrist 22.738981409416105
lhand -28.121995012297923 10.717047647665218
lfingers 7.125019999999999
lthumb -1.5035710705082344 40.67227077487721
rclavicle -1.8040000977054846e-15 1.0056423852143503e-15
rhumerus -50.62343302406861 -13.868833511995518 -81.96685766324019
rradius 61.56490729359287
rwrist 3.152230594894371
rhand -17.31858564240975 31.371042135571972
rfingers 7.125019999999999
rthumb 8.9276404098428 1.592719405576621
